<svg xmlns="http://www.w3.org/2000/svg" height="48" viewBox="0 96 960 960" width="48"><path d="m391 971-20-124.5q-13.5-4.5-35.25-16.75T292 802l-116 53-90.5-160 107-78q-2-8.975-2.5-19.987-.5-11.013-.5-21.013 0-8.5.5-20.25t2.5-21.75l-107-78L176 296.5 293 350q15-12.5 36.25-24.75T371 306.5l20-126h178.5l20 124.5q19 7 40.75 19T667 350l117.5-53.5L875 456l-108.5 77.041q1.5 9.959 2.25 21.209t.75 21.75q0 10.5-.75 21.425t-2.25 20.657L874.5 695 784 855l-117-53.5q-14.971 12.864-35.236 25.182Q611.5 839 589.5 846.5l-20 124.5H391Zm88.231-267.5q52.805 0 90.037-37.275 37.232-37.276 37.232-90.25 0-52.975-37.268-90.225Q531.964 448.5 479 448.5q-53.5 0-90.5 37.275-37 37.276-37 90.25 0 52.975 37 90.225 37 37.25 90.731 37.25ZM479 646q-29.5 0-49.75-20.5T409 576q0-29 20.25-49.5T479 506q29 0 49.5 20.5T549 576q0 29-20.5 49.5T479 646Zm1-70.5Zm-43.651 338h87.085L538 801q32.585-8.066 61.085-24.443Q627.585 760.18 651.5 736L758 782.5l39.5-71.256L703 642q3.5-17 6.25-33.209 2.75-16.21 2.75-32.91Q712 559 710 543t-7-33l94.5-69.5-39-71.5-107 46.5q-22.5-25-51.25-42.5T538 350.5L524 238h-88l-13.5 112.535q-35 7.465-63 23.465t-52 41.5L202 369l-40 71.5 94 68.5q-4 17.5-6.5 33.819-2.5 16.319-2.5 32.651 0 17.03 2.25 33.28t6.25 33.75L162 711l39.859 71.5 105.641-46q24.5 24.5 53.25 40.75t61.75 24.25l13.849 112Z"/></svg>